<svg id="Layer_1" data-name="Layer 1" xmlns="http://www.w3.org/2000/svg" viewBox="0 0 332.9 62.99"><defs><style>.cls-1{fill:#414042;}</style></defs><title>argentDB</title><path class="cls-1" d="M158.49,412.42a1.21,1.21,0,0,1-1.26-1.1L155,399.83H141l-2.12,11.49a1.21,1.21,0,0,1-1.26,1.1H129.2c-.87,0-1.26-.47-1-1.33l13.07-60.55a1.22,1.22,0,0,1,1.34-1.1h10.94a1.22,1.22,0,0,1,1.34,1.1l13.07,60.55c.16.86-.16,1.33-1.1,1.33ZM148,363.21l-5,27.48h10.08Z" transform="translate(-128.11 -349.44)"/><path class="cls-1" d="M206.52,384.47c0,4.57-1.49,7.8-4.41,9.61l4.1,16.93c.23.94-.24,1.41-1.11,1.41h-7.71a1.23,1.23,0,0,1-1.34-1.1l-3.78-15.51h-7v15.35a1.16,1.16,0,0,1-1.26,1.26h-7.71a1.16,1.16,0,0,1-1.26-1.26V358.57a1.16,1.16,0,0,1,1.26-1.26h18.89c7.41,0,11.34,3.94,11.34,11.34Zm-13.38,1.18a2.83,2.83,0,0,0,3.15-3.15V370.62a2.83,2.83,0,0,0-3.15-3.15h-7.88v18.18Z" transform="translate(-128.11 -349.44)"/><path class="cls-1" d="M214,368.65c0-7.4,3.93-11.34,11.33-11.34h8.82c7.32,0,11.34,3.94,11.34,11.34v5.82a1.16,1.16,0,0,1-1.26,1.26h-7.4a1.12,1.12,0,0,1-1.26-1.26v-3.85a2.83,2.83,0,0,0-3.15-3.15h-5c-2.13,0-3.15,1.1-3.15,3.15v28.5a2.8,2.8,0,0,0,3.15,3.15h5a2.8,2.8,0,0,0,3.15-3.15v-6.85h-4.09a1.12,1.12,0,0,1-1.26-1.26v-7.88c0-.86.39-1.25,1.26-1.25h12.75a1.12,1.12,0,0,1,1.26,1.25v18c0,7.4-4,11.33-11.34,11.33h-8.82c-7.4,0-11.33-3.93-11.33-11.33Z" transform="translate(-128.11 -349.44)"/><path class="cls-1" d="M284.79,366.44c0,.79-.31,1.34-1.26,1.34H264.08v12.13h14.81a1.19,1.19,0,0,1,1.26,1.34V389a1.19,1.19,0,0,1-1.26,1.34H264.08V402h19.45c1,0,1.26.39,1.26,1.26v7.87c0,.79-.31,1.26-1.26,1.26h-29a1.14,1.14,0,0,1-1.18-1.26V358.57a1.14,1.14,0,0,1,1.18-1.26h29c1,0,1.26.47,1.26,1.26Z" transform="translate(-128.11 -349.44)"/><path class="cls-1" d="M325,357.31a1.16,1.16,0,0,1,1.26,1.26v52.59a1.16,1.16,0,0,1-1.26,1.26h-6.22a1.42,1.42,0,0,1-1.42-1l-14.8-30.08v29.84a1.13,1.13,0,0,1-1.26,1.26h-7.4a1.16,1.16,0,0,1-1.26-1.26V358.57a1.16,1.16,0,0,1,1.26-1.26h6.22a1.4,1.4,0,0,1,1.41,1l14.81,30.08V358.57a1.12,1.12,0,0,1,1.26-1.26Z" transform="translate(-128.11 -349.44)"/><path class="cls-1" d="M362.82,357.31a1.12,1.12,0,0,1,1.26,1.26v7.87a1.12,1.12,0,0,1-1.26,1.26h-9.13v43.46c0,.87-.39,1.26-1.26,1.26h-8.19a1.12,1.12,0,0,1-1.26-1.26V367.7h-9.13a1.16,1.16,0,0,1-1.26-1.26v-7.87a1.16,1.16,0,0,1,1.26-1.26Z" transform="translate(-128.11 -349.44)"/><path class="cls-1" d="M390.07,350.7a1.12,1.12,0,0,1,1.26-1.26h18.89c7.41,0,11.34,4,11.34,11.41v40.24c0,7.4-3.93,11.33-11.34,11.33H391.33c-.87,0-1.26-.39-1.26-1.26ZM408,402c2.05,0,3.15-1,3.15-3.15V363.06c0-2.13-1.1-3.23-3.15-3.23h-7.24V402Z" transform="translate(-128.11 -349.44)"/><path class="cls-1" d="M461,375.26a5.67,5.67,0,0,1-5,5.59V381a5.67,5.67,0,0,1,5,5.59v14.49c0,7.4-4,11.33-11.42,11.33H430.7a1.16,1.16,0,0,1-1.26-1.26V350.7a1.12,1.12,0,0,1,1.26-1.26h18.89c7.41,0,11.42,3.93,11.42,11.33ZM450.54,363c0-2.05-1-3.15-3.15-3.15h-7.16v15.9h7.16a2.8,2.8,0,0,0,3.15-3.07Zm0,26.3c0-2-1-3.15-3.15-3.15h-7.16V402h7.16c2.05,0,3.15-1,3.15-3.15Z" transform="translate(-128.11 -349.44)"/></svg>