<svg id="Layer_2" data-name="Layer 2" xmlns="http://www.w3.org/2000/svg" viewBox="0 0 226.89 176.25"><defs><style>.cls-1{fill:#6d6e71;}.cls-1,.cls-2{stroke:#231f20;stroke-miterlimit:10;stroke-width:6.81px;opacity:0.44;}.cls-2{fill:#808285;}</style></defs><title>deckicon</title><path class="cls-1" d="M219.14,120.43l-129.59,51c-9.9,3.33-13.74.07-19.17-4.31L8.22,117c-1.48-1.08-9.69-7.49-.58-11.64l129.59-51c9.62-3.71,13.74-.07,19.18,4.31l62.15,50.17C227.11,115.2,222.63,118.92,219.14,120.43Z"/><path class="cls-1" d="M219.14,103.69l-129.59,51c-9.9,3.34-13.74.07-19.17-4.31L8.22,100.25c-1.48-1.08-9.69-7.49-.58-11.63l129.59-51c9.62-3.72,13.74-.08,19.18,4.31l62.15,50.17C227.11,98.46,222.63,102.19,219.14,103.69Z"/><path class="cls-1" d="M219.14,87.87l-129.59,51c-9.9,3.34-13.74.08-19.17-4.31L8.22,84.43c-1.48-1.07-9.69-7.49-.58-11.63l129.59-51c9.62-3.71,13.74-.07,19.18,4.31l62.15,50.17C227.11,82.64,222.63,86.37,219.14,87.87Z"/><path class="cls-2" d="M219.14,71.06l-129.59,51c-9.9,3.33-13.74.07-19.17-4.31L8.22,67.62C6.74,66.54-1.47,60.13,7.64,56l129.59-51c9.62-3.71,13.74-.07,19.18,4.31l62.15,50.17C227.11,65.83,222.63,69.55,219.14,71.06Z"/></svg>